<?xml version="1.0" standalone="no"?>
<!DOCTYPE svg PUBLIC "-//W3C//DTD SVG 20010904//EN"
 "http://www.w3.org/TR/2001/REC-SVG-20010904/DTD/svg10.dtd">
<svg version="1.0" xmlns="http://www.w3.org/2000/svg"
 width="176.000000pt" height="176.000000pt" viewBox="0 0 176.000000 176.000000"
 preserveAspectRatio="xMidYMid meet">
<metadata>
Created by potrace 1.14, written by Peter Selinger 2001-2017
</metadata>
<g transform="translate(0.000000,176.000000) scale(0.100000,-0.100000)"
fill="#000000" stroke="none">
<path d="M0 1598 c0 -155 1 -161 18 -145 10 10 22 17 26 17 14 0 48 39 42 48
-12 20 15 69 47 83 25 11 33 21 35 45 3 28 8 32 40 38 29 4 40 2 49 -12 7 -9
16 -21 20 -27 5 -5 19 -27 32 -47 25 -42 33 -45 51 -23 10 12 16 13 27 4 8 -7
12 -18 9 -26 -3 -7 -3 -20 1 -29 10 -28 23 7 16 45 -4 24 -2 32 6 27 7 -5 11
3 11 21 1 30 20 63 39 63 6 0 11 5 11 12 0 21 17 -5 30 -44 15 -48 49 -51 41
-4 -1 5 5 16 12 25 8 9 18 32 22 51 7 33 8 34 18 13 12 -28 47 -26 47 2 0 18
1 18 13 -4 6 -13 16 -23 21 -22 5 2 13 -3 17 -11 7 -10 9 -10 9 0 0 7 4 10 10
7 5 -3 10 -1 10 6 0 7 7 21 17 31 16 17 4 18 -365 18 l-382 0 0 -162z"/>
<path d="M55 1237 c-55 -18 -55 -18 -55 -183 0 -147 1 -154 20 -154 11 0 20
-4 20 -9 0 -4 -9 -20 -20 -34 -17 -22 -20 -40 -20 -131 0 -96 7 -125 25 -96 3
5 11 10 17 10 6 0 -1 -12 -16 -26 -26 -26 -38 -72 -15 -58 8 5 10 -3 4 -27 -4
-19 -10 -145 -12 -281 l-4 -248 881 0 880 0 0 428 0 428 -33 0 c-17 0 -41 4
-52 8 -28 12 -65 16 -65 7 0 -10 40 -61 73 -93 30 -30 33 -41 13 -57 -10 -8
-19 -7 -37 8 -94 73 -174 64 -115 -13 14 -19 22 -37 17 -40 -5 -4 -18 4 -28
17 -10 13 -29 29 -42 36 -22 12 -22 11 -15 -11 13 -37 8 -69 -20 -130 -29 -61
-49 -68 -67 -20 -5 14 -12 23 -14 20 -4 -4 -11 -44 -14 -80 -2 -19 -39 -5 -64
24 l-28 33 2 -30 c2 -49 0 -53 -23 -57 -13 -2 -28 -16 -37 -33 -15 -32 -26
-53 -50 -100 l-16 -30 -3 42 c-2 24 -8 43 -14 43 -29 0 -125 -135 -159 -223
-12 -31 -26 -57 -30 -57 -5 0 -9 -7 -9 -16 0 -8 -4 -12 -10 -9 -5 3 -10 2 -10
-4 0 -17 -47 -7 -72 15 -13 11 -32 33 -43 49 -11 16 -31 41 -45 55 -27 28 -60
92 -60 114 0 8 -8 24 -18 37 l-19 22 -18 -31 c-15 -25 -22 -29 -37 -21 -13 7
-18 21 -18 54 0 25 -2 45 -5 45 -3 0 -16 -10 -30 -22 -14 -12 -33 -23 -42 -24
-10 -2 -19 -8 -21 -13 -7 -22 -21 -10 -24 22 l-3 32 -31 -42 c-17 -23 -34 -39
-38 -36 -15 15 -5 133 14 179 39 91 -3 75 -92 -35 -19 -23 -38 -28 -38 -10 0
16 -41 50 -51 43 -5 -3 -18 0 -29 6 -15 8 -20 21 -20 55 0 40 15 74 57 130 5
6 15 19 23 30 15 19 15 19 -15 1 -41 -26 -109 -79 -113 -89 -2 -4 -16 -14 -32
-22 -25 -13 -29 -13 -34 2 -4 9 -5 17 -4 17 61 33 108 96 89 120 -4 6 -8 25
-7 41 1 26 5 30 34 33 20 2 32 9 32 18 0 8 5 14 10 14 6 0 10 12 10 26 0 21 4
24 20 19 24 -8 26 8 3 30 -13 14 -26 16 -62 10 -74 -12 -158 -16 -142 -6 11 7
10 14 -5 41 -19 31 -19 32 1 46 54 39 76 67 71 90 -3 12 -2 25 2 28 5 3 8 15
6 28 -1 13 -3 28 -3 34 -1 18 -23 22 -56 11z"/>
<path d="M371 1186 c2 -2 15 -9 29 -15 24 -11 24 -11 6 3 -16 13 -49 24 -35
12z"/>
<path d="M433 1160 c-1 -11 10 -22 30 -29 18 -6 22 -9 10 -7 -13 2 -23 0 -23
-5 0 -5 14 -9 31 -9 17 0 28 -4 24 -10 -3 -5 3 -10 15 -10 11 0 23 -7 26 -15
4 -8 13 -15 21 -15 24 0 -2 -27 -34 -35 -14 -3 -23 -9 -20 -12 4 -3 24 2 47
11 55 22 60 20 25 -10 l-30 -25 38 16 c25 10 43 12 54 6 14 -7 13 -10 -8 -16
-25 -8 -78 -45 -64 -45 4 0 23 10 42 21 19 12 36 19 39 16 3 -3 -7 -14 -23
-23 -15 -10 -30 -21 -33 -25 -3 -3 -14 -11 -25 -17 -11 -6 -15 -12 -8 -12 7 0
34 14 60 30 26 17 56 30 67 30 19 -1 20 -1 3 -11 -56 -33 -91 -99 -52 -99 8 0
15 -4 15 -9 0 -17 40 -23 58 -9 15 12 16 11 3 -4 -12 -16 -11 -18 2 -18 8 0
18 -6 20 -12 4 -10 6 -10 6 0 1 6 5 12 11 12 6 0 6 -9 0 -25 -11 -28 -8 -30
23 -14 19 9 20 8 5 -3 -9 -7 -31 -21 -48 -31 -23 -12 -31 -23 -27 -36 2 -10 0
-27 -6 -37 -9 -17 -9 -17 5 -6 14 11 16 10 11 -7 -3 -12 -1 -21 6 -21 6 0 11
-7 11 -16 0 -8 4 -12 10 -9 6 3 7 -1 4 -9 -3 -9 -10 -13 -15 -10 -5 3 -9 0 -9
-5 0 -14 6 -14 31 -1 17 10 19 7 19 -30 0 -36 2 -41 19 -35 14 4 21 0 26 -15
3 -11 15 -20 25 -20 10 0 22 -9 25 -20 8 -26 19 -25 46 3 15 15 23 18 26 10 3
-7 13 -13 24 -13 14 0 21 9 26 30 6 33 29 41 36 12 3 -13 6 -12 15 10 8 20 16
25 31 21 20 -5 27 9 22 40 0 4 13 7 30 7 18 0 28 4 24 10 -4 6 -10 8 -15 5 -5
-3 -11 -1 -14 4 -4 5 -1 13 5 17 8 5 9 3 4 -6 -5 -8 -4 -11 3 -6 6 4 9 13 5
21 -3 9 1 15 11 15 9 0 16 7 16 16 0 8 -4 13 -8 10 -4 -2 -14 4 -20 15 -12 19
-11 19 9 9 16 -9 23 -9 29 0 5 8 12 7 24 -5 9 -10 20 -14 24 -10 12 11 -59 64
-144 106 -54 26 -84 47 -87 60 -5 20 -5 20 14 3 26 -24 34 -12 13 21 l-17 26
39 -22 39 -23 -22 25 c-31 34 -29 45 3 24 40 -26 42 -9 3 31 l-34 36 43 -26
43 -27 -16 25 c-15 23 -15 25 2 29 14 3 12 7 -12 18 -20 9 -29 20 -27 32 2 9
8 17 13 17 6 0 8 4 5 8 -3 5 6 16 20 26 24 19 33 46 15 46 -5 0 -17 3 -25 6
-12 5 -15 2 -10 -11 4 -9 2 -20 -5 -24 -6 -4 -13 -18 -16 -31 -7 -34 -36 -57
-86 -65 -24 -4 -47 -9 -50 -11 -4 -2 -3 -22 1 -44 4 -23 4 -37 -2 -34 -5 3
-12 -3 -15 -14 -6 -26 -51 -22 -86 8 -33 29 -34 54 -4 75 l22 16 -29 24 c-17
13 -33 22 -37 19 -4 -2 -10 0 -14 6 -3 5 -1 10 6 10 7 0 9 3 6 6 -3 4 -2 15 4
25 7 15 6 19 -5 19 -8 0 -23 3 -33 6 -13 4 -15 3 -5 -4 11 -7 8 -16 -17 -41
-17 -17 -38 -31 -48 -30 -16 0 -15 1 2 8 18 8 16 10 -15 19 l-35 10 50 1 c36
1 46 4 35 11 -11 7 -11 10 -2 10 7 0 10 5 6 11 -4 7 -21 9 -43 5 -26 -4 -32
-3 -21 5 11 7 0 8 -36 4 -33 -4 -54 -3 -59 4 -3 6 0 11 7 11 13 1 -44 23 -97
39 -26 7 -31 5 -32 -9z m292 -140 c-3 -5 -16 -10 -28 -9 -20 1 -20 2 3 9 14 4
26 8 28 9 2 1 0 -3 -3 -9z m59 -120 c-6 -6 -10 2 -11 23 -2 30 -1 31 9 9 7
-14 8 -26 2 -32z m35 -46 c13 -13 27 -43 31 -64 l7 -40 -21 23 c-22 24 -59
107 -48 107 4 0 18 -12 31 -26z m97 -5 c3 -6 15 -9 25 -6 10 3 22 0 26 -5 4
-7 1 -8 -7 -3 -8 5 -11 2 -7 -11 3 -11 2 -37 -1 -59 l-8 -40 -19 32 c-10 18
-22 30 -26 28 -8 -5 -19 56 -12 68 6 10 21 9 29 -4z m75 -46 c13 -16 12 -17
-3 -4 -10 7 -18 15 -18 17 0 8 8 3 21 -13z m-211 -89 c-5 -19 -10 -37 -12 -38
-1 -1 -11 -8 -21 -15 -16 -13 -16 -11 -1 25 15 35 32 64 39 64 2 0 -1 -16 -5
-36z m43 -9 c4 -8 2 -17 -3 -20 -6 -4 -10 3 -10 14 0 25 6 27 13 6z m147 -50
c0 -19 -4 -35 -9 -35 -10 0 -22 51 -14 62 11 19 23 5 23 -27z m-111 -3 c9 -17
9 -22 -1 -20 -7 2 -17 -17 -24 -47 -7 -27 -13 -44 -13 -36 -1 15 22 132 25
128 1 -1 7 -12 13 -25z m70 -43 c-19 -11 -22 -5 -13 33 l7 33 10 -29 c7 -21 6
-30 -4 -37z m-126 21 c-7 -28 -13 -25 -13 6 0 14 4 23 9 20 5 -3 7 -15 4 -26z
m220 0 c3 -11 1 -18 -4 -14 -5 3 -9 12 -9 20 0 20 7 17 13 -6z m-20 -73 c-8
-12 -23 14 -22 38 0 18 1 17 13 -5 8 -14 12 -29 9 -33z m-102 -80 c-10 -9 -11
-8 -5 6 3 10 9 15 12 12 3 -3 0 -11 -7 -18z"/>
<path d="M1260 1161 l-25 -7 23 -8 c20 -7 21 -9 6 -23 -8 -9 -13 -22 -10 -29
3 -9 -1 -14 -11 -14 -23 0 -5 -16 27 -24 14 -3 19 -3 13 0 -20 9 -15 24 7 24
11 0 20 7 20 15 0 8 7 15 15 15 8 0 15 5 15 10 0 6 8 11 18 11 9 1 4 5 -13 9
-16 4 -22 8 -12 9 10 0 15 6 12 11 -7 11 -47 12 -85 1z"/>
<path d="M790 1070 c0 -5 5 -10 10 -10 6 0 10 5 10 10 0 6 -4 10 -10 10 -5 0
-10 -4 -10 -10z"/>
<path d="M1114 1016 c11 -9 16 -16 12 -16 -5 0 -3 -7 4 -15 10 -12 16 -12 26
-4 8 6 21 9 29 5 10 -3 13 -2 10 5 -7 10 -31 21 -75 33 -24 7 -24 6 -6 -8z"/>
<path d="M1238 1013 c7 -3 16 -2 19 1 4 3 -2 6 -13 5 -11 0 -14 -3 -6 -6z"/>
<path d="M463 1003 c9 -2 23 -2 30 0 6 3 -1 5 -18 5 -16 0 -22 -2 -12 -5z"/>
<path d="M523 943 c9 -2 23 -2 30 0 6 3 -1 5 -18 5 -16 0 -22 -2 -12 -5z"/>
<path d="M698 748 c-24 -24 -37 -43 -30 -46 12 -4 75 57 80 77 4 19 -7 12 -50
-31z"/>
<path d="M1180 680 c0 -5 5 -10 11 -10 5 0 7 5 4 10 -3 6 -8 10 -11 10 -2 0
-4 -4 -4 -10z"/>
</g>
</svg>
